<mxfile host="app.diagrams.net" modified="2023-11-20T07:50:25.023Z" agent="Mozilla/5.0 (Windows NT 10.0; Win64; x64) AppleWebKit/537.36 (KHTML, like Gecko) Chrome/116.0.0.0 Safari/537.36" etag="WI3cxoM7T_9UZY-w8hyJ" version="22.1.3" type="github">
  <diagram name="Page-1" id="pSJIV_TcfXccv9banAfS">
    <mxGraphModel dx="1434" dy="790" grid="1" gridSize="10" guides="1" tooltips="1" connect="1" arrows="1" fold="1" page="1" pageScale="1" pageWidth="850" pageHeight="1100" math="0" shadow="0">
      <root>
        <mxCell id="0" />
        <mxCell id="1" parent="0" />
        <mxCell id="rehw9UQoqYSjSyL3VY3b-1" value="Tourist app" style="rounded=0;whiteSpace=wrap;html=1;" parent="1" vertex="1">
          <mxGeometry x="210" y="130" width="120" height="60" as="geometry" />
        </mxCell>
        <mxCell id="rehw9UQoqYSjSyL3VY3b-2" value="OIS" style="rounded=0;whiteSpace=wrap;html=1;" parent="1" vertex="1">
          <mxGeometry x="455" y="130" width="120" height="60" as="geometry" />
        </mxCell>
        <mxCell id="rehw9UQoqYSjSyL3VY3b-4" value="Stripe Backend" style="rounded=0;whiteSpace=wrap;html=1;" parent="1" vertex="1">
          <mxGeometry x="690" y="130" width="120" height="60" as="geometry" />
        </mxCell>
        <mxCell id="rehw9UQoqYSjSyL3VY3b-6" value="" style="endArrow=none;html=1;rounded=0;entryX=0.5;entryY=1;entryDx=0;entryDy=0;" parent="1" target="rehw9UQoqYSjSyL3VY3b-1" edge="1">
          <mxGeometry width="50" height="50" relative="1" as="geometry">
            <mxPoint x="270" y="920" as="sourcePoint" />
            <mxPoint x="280" y="230" as="targetPoint" />
          </mxGeometry>
        </mxCell>
        <mxCell id="rehw9UQoqYSjSyL3VY3b-8" value="" style="endArrow=none;html=1;rounded=0;entryX=0.5;entryY=1;entryDx=0;entryDy=0;exitX=0.538;exitY=0.167;exitDx=0;exitDy=0;exitPerimeter=0;" parent="1" source="J9-U7KSpR_YzEMcBNlFe-7" edge="1">
          <mxGeometry width="50" height="50" relative="1" as="geometry">
            <mxPoint x="515" y="450" as="sourcePoint" />
            <mxPoint x="514.5" y="190" as="targetPoint" />
          </mxGeometry>
        </mxCell>
        <mxCell id="rehw9UQoqYSjSyL3VY3b-9" value="" style="endArrow=none;html=1;rounded=0;entryX=0.583;entryY=1;entryDx=0;entryDy=0;entryPerimeter=0;" parent="1" edge="1" target="rehw9UQoqYSjSyL3VY3b-4">
          <mxGeometry width="50" height="50" relative="1" as="geometry">
            <mxPoint x="760" y="880" as="sourcePoint" />
            <mxPoint x="760" y="250" as="targetPoint" />
          </mxGeometry>
        </mxCell>
        <mxCell id="rehw9UQoqYSjSyL3VY3b-12" value="" style="endArrow=classic;html=1;rounded=0;" parent="1" edge="1">
          <mxGeometry width="50" height="50" relative="1" as="geometry">
            <mxPoint x="272.5" y="380" as="sourcePoint" />
            <mxPoint x="522.5" y="380" as="targetPoint" />
          </mxGeometry>
        </mxCell>
        <mxCell id="rehw9UQoqYSjSyL3VY3b-14" value="Stripe SDK" style="rounded=0;whiteSpace=wrap;html=1;" parent="1" vertex="1">
          <mxGeometry x="10" y="130" width="120" height="60" as="geometry" />
        </mxCell>
        <mxCell id="rehw9UQoqYSjSyL3VY3b-15" value="" style="endArrow=none;html=1;rounded=0;entryX=0.5;entryY=1;entryDx=0;entryDy=0;" parent="1" edge="1">
          <mxGeometry width="50" height="50" relative="1" as="geometry">
            <mxPoint x="70" y="850" as="sourcePoint" />
            <mxPoint x="69.5" y="190" as="targetPoint" />
          </mxGeometry>
        </mxCell>
        <mxCell id="rehw9UQoqYSjSyL3VY3b-17" value="Send create paymentIntent request to ois&amp;nbsp;" style="text;html=1;strokeColor=none;fillColor=none;align=center;verticalAlign=middle;whiteSpace=wrap;rounded=0;" parent="1" vertex="1">
          <mxGeometry x="270" y="340" width="240" height="60" as="geometry" />
        </mxCell>
        <mxCell id="rehw9UQoqYSjSyL3VY3b-18" value="REQUEST and FOREIGN_TXN" style="shape=datastore;whiteSpace=wrap;html=1;" parent="1" vertex="1">
          <mxGeometry x="660" y="990" width="115" height="90" as="geometry" />
        </mxCell>
        <mxCell id="rehw9UQoqYSjSyL3VY3b-22" value="" style="endArrow=classic;html=1;rounded=0;" parent="1" edge="1">
          <mxGeometry width="50" height="50" relative="1" as="geometry">
            <mxPoint x="270" y="841" as="sourcePoint" />
            <mxPoint x="70" y="840" as="targetPoint" />
          </mxGeometry>
        </mxCell>
        <mxCell id="rehw9UQoqYSjSyL3VY3b-45" value="" style="endArrow=classic;html=1;rounded=0;dashed=1;" parent="1" edge="1">
          <mxGeometry width="50" height="50" relative="1" as="geometry">
            <mxPoint x="70" y="260" as="sourcePoint" />
            <mxPoint x="760" y="260" as="targetPoint" />
          </mxGeometry>
        </mxCell>
        <mxCell id="rehw9UQoqYSjSyL3VY3b-47" value="Corresponding payment method has been stored to stripe&amp;nbsp;" style="text;html=1;strokeColor=none;fillColor=none;align=center;verticalAlign=middle;whiteSpace=wrap;rounded=0;" parent="1" vertex="1">
          <mxGeometry x="580" y="210" width="115" height="30" as="geometry" />
        </mxCell>
        <mxCell id="rehw9UQoqYSjSyL3VY3b-49" value="" style="endArrow=classic;html=1;rounded=0;dashed=1;" parent="1" edge="1">
          <mxGeometry width="50" height="50" relative="1" as="geometry">
            <mxPoint x="760" y="285" as="sourcePoint" />
            <mxPoint x="270" y="285" as="targetPoint" />
          </mxGeometry>
        </mxCell>
        <mxCell id="rehw9UQoqYSjSyL3VY3b-50" value="Stirpe return the payment method id of corresponding payment method information&amp;nbsp;" style="text;html=1;strokeColor=none;fillColor=none;align=center;verticalAlign=middle;whiteSpace=wrap;rounded=0;" parent="1" vertex="1">
          <mxGeometry x="547.5" y="290" width="165" height="30" as="geometry" />
        </mxCell>
        <mxCell id="J9-U7KSpR_YzEMcBNlFe-1" value="&lt;span style=&quot;color: rgb(0, 0, 0); font-family: Helvetica; font-size: 12px; font-style: normal; font-variant-ligatures: normal; font-variant-caps: normal; font-weight: 400; letter-spacing: normal; orphans: 2; text-align: center; text-indent: 0px; text-transform: none; widows: 2; word-spacing: 0px; -webkit-text-stroke-width: 0px; background-color: rgb(251, 251, 251); text-decoration-thickness: initial; text-decoration-style: initial; text-decoration-color: initial; float: none; display: inline !important;&quot;&gt;searhcthe payment detail by using method id in the request&amp;nbsp;&lt;/span&gt;&lt;span style=&quot;color: rgb(0, 0, 0); font-family: Helvetica; font-size: 12px; font-style: normal; font-variant-ligatures: normal; font-variant-caps: normal; font-weight: 400; letter-spacing: normal; orphans: 2; text-align: center; text-indent: 0px; text-transform: none; widows: 2; word-spacing: 0px; -webkit-text-stroke-width: 0px; background-color: rgb(251, 251, 251); text-decoration-thickness: initial; text-decoration-style: initial; text-decoration-color: initial; float: none; display: inline !important;&quot;&gt;from tourist app&lt;/span&gt;" style="text;whiteSpace=wrap;html=1;" vertex="1" parent="1">
          <mxGeometry x="520" y="340" width="220" height="50" as="geometry" />
        </mxCell>
        <mxCell id="J9-U7KSpR_YzEMcBNlFe-3" value="" style="endArrow=classic;html=1;rounded=0;" edge="1" parent="1">
          <mxGeometry width="50" height="50" relative="1" as="geometry">
            <mxPoint x="512.5" y="380" as="sourcePoint" />
            <mxPoint x="762.5" y="380" as="targetPoint" />
          </mxGeometry>
        </mxCell>
        <mxCell id="J9-U7KSpR_YzEMcBNlFe-4" value="" style="endArrow=classic;html=1;rounded=0;" edge="1" parent="1">
          <mxGeometry width="50" height="50" relative="1" as="geometry">
            <mxPoint x="760" y="480" as="sourcePoint" />
            <mxPoint x="570" y="480" as="targetPoint" />
          </mxGeometry>
        </mxCell>
        <mxCell id="J9-U7KSpR_YzEMcBNlFe-5" value="&lt;div style=&quot;text-align: center;&quot;&gt;Return payment method detail for the payment method id&lt;/div&gt;" style="text;whiteSpace=wrap;html=1;" vertex="1" parent="1">
          <mxGeometry x="590" y="430" width="150" height="50" as="geometry" />
        </mxCell>
        <mxCell id="J9-U7KSpR_YzEMcBNlFe-7" value="check weather the payment method is a non hk issued master card" style="rounded=0;whiteSpace=wrap;html=1;" vertex="1" parent="1">
          <mxGeometry x="450" y="440" width="120" height="130" as="geometry" />
        </mxCell>
        <mxCell id="J9-U7KSpR_YzEMcBNlFe-9" value="Yes" style="shape=flexArrow;endArrow=classic;html=1;rounded=0;" edge="1" parent="1">
          <mxGeometry width="50" height="50" relative="1" as="geometry">
            <mxPoint x="540" y="570" as="sourcePoint" />
            <mxPoint x="540" y="620" as="targetPoint" />
          </mxGeometry>
        </mxCell>
        <mxCell id="J9-U7KSpR_YzEMcBNlFe-11" value="Create payment Intent for the payment method, attach payment method and customer to the payment intent and enable 3ds.&amp;nbsp;" style="rounded=0;whiteSpace=wrap;html=1;" vertex="1" parent="1">
          <mxGeometry x="452.5" y="700" width="140" height="120" as="geometry" />
        </mxCell>
        <mxCell id="J9-U7KSpR_YzEMcBNlFe-12" value="" style="shape=flexArrow;endArrow=classic;html=1;rounded=0;" edge="1" parent="1">
          <mxGeometry width="50" height="50" relative="1" as="geometry">
            <mxPoint x="450" y="540" as="sourcePoint" />
            <mxPoint x="270" y="540" as="targetPoint" />
          </mxGeometry>
        </mxCell>
        <mxCell id="J9-U7KSpR_YzEMcBNlFe-13" value="No" style="edgeLabel;html=1;align=center;verticalAlign=middle;resizable=0;points=[];" vertex="1" connectable="0" parent="J9-U7KSpR_YzEMcBNlFe-12">
          <mxGeometry x="-0.25" y="1" relative="1" as="geometry">
            <mxPoint as="offset" />
          </mxGeometry>
        </mxCell>
        <mxCell id="J9-U7KSpR_YzEMcBNlFe-24" value="(step 2)" style="edgeLabel;html=1;align=center;verticalAlign=middle;resizable=0;points=[];" vertex="1" connectable="0" parent="J9-U7KSpR_YzEMcBNlFe-12">
          <mxGeometry x="-0.4778" relative="1" as="geometry">
            <mxPoint x="9" as="offset" />
          </mxGeometry>
        </mxCell>
        <mxCell id="J9-U7KSpR_YzEMcBNlFe-14" value="" style="shape=flexArrow;endArrow=classic;html=1;rounded=0;" edge="1" parent="1">
          <mxGeometry width="50" height="50" relative="1" as="geometry">
            <mxPoint x="570" y="510" as="sourcePoint" />
            <mxPoint x="760" y="511" as="targetPoint" />
          </mxGeometry>
        </mxCell>
        <mxCell id="J9-U7KSpR_YzEMcBNlFe-15" value="No" style="edgeLabel;html=1;align=center;verticalAlign=middle;resizable=0;points=[];" vertex="1" connectable="0" parent="J9-U7KSpR_YzEMcBNlFe-14">
          <mxGeometry x="-0.25" y="1" relative="1" as="geometry">
            <mxPoint as="offset" />
          </mxGeometry>
        </mxCell>
        <mxCell id="J9-U7KSpR_YzEMcBNlFe-23" value="(step 1)" style="edgeLabel;html=1;align=center;verticalAlign=middle;resizable=0;points=[];" vertex="1" connectable="0" parent="J9-U7KSpR_YzEMcBNlFe-14">
          <mxGeometry x="0.0527" relative="1" as="geometry">
            <mxPoint x="5" y="-1" as="offset" />
          </mxGeometry>
        </mxCell>
        <mxCell id="J9-U7KSpR_YzEMcBNlFe-16" value="Detach the payment method by using the method id" style="text;html=1;strokeColor=none;fillColor=none;align=center;verticalAlign=middle;whiteSpace=wrap;rounded=0;" vertex="1" parent="1">
          <mxGeometry x="592.5" y="530" width="130" height="40" as="geometry" />
        </mxCell>
        <mxCell id="J9-U7KSpR_YzEMcBNlFe-17" value="Return status code that indicates failed reason" style="text;html=1;strokeColor=none;fillColor=none;align=center;verticalAlign=middle;whiteSpace=wrap;rounded=0;" vertex="1" parent="1">
          <mxGeometry x="295" y="500" width="140" height="30" as="geometry" />
        </mxCell>
        <mxCell id="J9-U7KSpR_YzEMcBNlFe-18" value="" style="endArrow=classic;html=1;rounded=0;" edge="1" parent="1">
          <mxGeometry width="50" height="50" relative="1" as="geometry">
            <mxPoint x="270" y="230" as="sourcePoint" />
            <mxPoint x="70" y="230" as="targetPoint" />
          </mxGeometry>
        </mxCell>
        <mxCell id="J9-U7KSpR_YzEMcBNlFe-19" value="Open SDK" style="edgeLabel;html=1;align=center;verticalAlign=middle;resizable=0;points=[];" vertex="1" connectable="0" parent="J9-U7KSpR_YzEMcBNlFe-18">
          <mxGeometry x="-0.1619" relative="1" as="geometry">
            <mxPoint as="offset" />
          </mxGeometry>
        </mxCell>
        <mxCell id="J9-U7KSpR_YzEMcBNlFe-26" value="" style="endArrow=classic;html=1;rounded=0;" edge="1" parent="1">
          <mxGeometry width="50" height="50" relative="1" as="geometry">
            <mxPoint x="595" y="740" as="sourcePoint" />
            <mxPoint x="760" y="740" as="targetPoint" />
          </mxGeometry>
        </mxCell>
        <mxCell id="J9-U7KSpR_YzEMcBNlFe-29" value="send create payment intent request" style="text;html=1;strokeColor=none;fillColor=none;align=center;verticalAlign=middle;whiteSpace=wrap;rounded=0;" vertex="1" parent="1">
          <mxGeometry x="606.25" y="700" width="102.5" height="30" as="geometry" />
        </mxCell>
        <mxCell id="J9-U7KSpR_YzEMcBNlFe-37" value="" style="endArrow=classic;html=1;rounded=0;" edge="1" parent="1">
          <mxGeometry width="50" height="50" relative="1" as="geometry">
            <mxPoint x="760" y="880" as="sourcePoint" />
            <mxPoint x="590" y="880" as="targetPoint" />
          </mxGeometry>
        </mxCell>
        <mxCell id="J9-U7KSpR_YzEMcBNlFe-38" value="Store key information in REQUEST table and FOREIGN_TXN table and return purchase Id(request id)" style="rounded=0;whiteSpace=wrap;html=1;" vertex="1" parent="1">
          <mxGeometry x="455" y="850" width="140" height="120" as="geometry" />
        </mxCell>
        <mxCell id="J9-U7KSpR_YzEMcBNlFe-42" value="return positive response" style="text;html=1;strokeColor=none;fillColor=none;align=center;verticalAlign=middle;whiteSpace=wrap;rounded=0;" vertex="1" parent="1">
          <mxGeometry x="606.25" y="780" width="133.75" height="30" as="geometry" />
        </mxCell>
        <mxCell id="J9-U7KSpR_YzEMcBNlFe-43" value="" style="endArrow=classic;html=1;rounded=0;exitX=-0.021;exitY=0.575;exitDx=0;exitDy=0;exitPerimeter=0;" edge="1" parent="1" source="J9-U7KSpR_YzEMcBNlFe-38">
          <mxGeometry width="50" height="50" relative="1" as="geometry">
            <mxPoint x="400" y="840" as="sourcePoint" />
            <mxPoint x="270" y="920" as="targetPoint" />
          </mxGeometry>
        </mxCell>
        <mxCell id="J9-U7KSpR_YzEMcBNlFe-44" value="Return successful status code and purchase Id" style="text;html=1;strokeColor=none;fillColor=none;align=center;verticalAlign=middle;whiteSpace=wrap;rounded=0;" vertex="1" parent="1">
          <mxGeometry x="285" y="880" width="140" height="30" as="geometry" />
        </mxCell>
        <mxCell id="J9-U7KSpR_YzEMcBNlFe-45" value="Procced to next step of stripe SDK" style="text;html=1;strokeColor=none;fillColor=none;align=center;verticalAlign=middle;whiteSpace=wrap;rounded=0;" vertex="1" parent="1">
          <mxGeometry x="110" y="800" width="140" height="30" as="geometry" />
        </mxCell>
        <mxCell id="J9-U7KSpR_YzEMcBNlFe-46" value="" style="endArrow=classic;html=1;rounded=0;entryX=-0.026;entryY=0.111;entryDx=0;entryDy=0;entryPerimeter=0;exitX=1;exitY=1;exitDx=0;exitDy=0;" edge="1" parent="1" source="J9-U7KSpR_YzEMcBNlFe-38" target="rehw9UQoqYSjSyL3VY3b-18">
          <mxGeometry width="50" height="50" relative="1" as="geometry">
            <mxPoint x="592.5" y="930" as="sourcePoint" />
            <mxPoint x="642.5" y="880" as="targetPoint" />
          </mxGeometry>
        </mxCell>
        <mxCell id="J9-U7KSpR_YzEMcBNlFe-65" value="save key information" style="edgeLabel;html=1;align=center;verticalAlign=middle;resizable=0;points=[];" vertex="1" connectable="0" parent="J9-U7KSpR_YzEMcBNlFe-46">
          <mxGeometry x="-0.3752" y="4" relative="1" as="geometry">
            <mxPoint x="-1" y="4" as="offset" />
          </mxGeometry>
        </mxCell>
        <mxCell id="J9-U7KSpR_YzEMcBNlFe-51" value="Check whether other fields are valid, if not, reject the request&amp;nbsp;" style="rounded=0;whiteSpace=wrap;html=1;" vertex="1" parent="1">
          <mxGeometry x="455" y="620" width="120" height="60" as="geometry" />
        </mxCell>
        <mxCell id="J9-U7KSpR_YzEMcBNlFe-54" value="" style="endArrow=classic;html=1;rounded=0;" edge="1" parent="1">
          <mxGeometry width="50" height="50" relative="1" as="geometry">
            <mxPoint x="520" y="680" as="sourcePoint" />
            <mxPoint x="520" y="700" as="targetPoint" />
          </mxGeometry>
        </mxCell>
        <mxCell id="J9-U7KSpR_YzEMcBNlFe-58" value="Return status code that indicates failed reason" style="text;html=1;strokeColor=none;fillColor=none;align=center;verticalAlign=middle;whiteSpace=wrap;rounded=0;" vertex="1" parent="1">
          <mxGeometry x="300" y="620" width="140" height="30" as="geometry" />
        </mxCell>
        <mxCell id="J9-U7KSpR_YzEMcBNlFe-60" value="" style="shape=flexArrow;endArrow=classic;html=1;rounded=0;" edge="1" parent="1">
          <mxGeometry width="50" height="50" relative="1" as="geometry">
            <mxPoint x="450" y="660" as="sourcePoint" />
            <mxPoint x="280" y="660" as="targetPoint" />
          </mxGeometry>
        </mxCell>
        <mxCell id="J9-U7KSpR_YzEMcBNlFe-61" value="Other fields are not valid" style="edgeLabel;html=1;align=center;verticalAlign=middle;resizable=0;points=[];" vertex="1" connectable="0" parent="J9-U7KSpR_YzEMcBNlFe-60">
          <mxGeometry x="0.1647" y="2" relative="1" as="geometry">
            <mxPoint x="19" as="offset" />
          </mxGeometry>
        </mxCell>
        <mxCell id="J9-U7KSpR_YzEMcBNlFe-63" value="" style="endArrow=classic;html=1;rounded=0;entryX=0.989;entryY=0.933;entryDx=0;entryDy=0;entryPerimeter=0;" edge="1" parent="1" target="J9-U7KSpR_YzEMcBNlFe-11">
          <mxGeometry width="50" height="50" relative="1" as="geometry">
            <mxPoint x="760" y="812" as="sourcePoint" />
            <mxPoint x="750" y="820" as="targetPoint" />
          </mxGeometry>
        </mxCell>
        <mxCell id="J9-U7KSpR_YzEMcBNlFe-64" value="" style="endArrow=classic;html=1;rounded=0;" edge="1" parent="1">
          <mxGeometry width="50" height="50" relative="1" as="geometry">
            <mxPoint x="520" y="820" as="sourcePoint" />
            <mxPoint x="520.5" y="850" as="targetPoint" />
          </mxGeometry>
        </mxCell>
      </root>
    </mxGraphModel>
  </diagram>
</mxfile>
